<svg width="16" height="22" viewBox="0 0 16 22" fill="none" xmlns="http://www.w3.org/2000/svg">
<path d="M9 1C9 0.447715 8.55228 5.96046e-08 8 5.96046e-08C7.44772 5.96046e-08 7 0.447715 7 1H9ZM7.29289 20.8492C7.68342 21.2397 8.31658 21.2397 8.70711 20.8492L15.0711 14.4852C15.4616 14.0947 15.4616 13.4615 15.0711 13.071C14.6805 12.6805 14.0474 12.6805 13.6569 13.071L8 18.7279L2.34315 13.071C1.95262 12.6805 1.31946 12.6805 0.928933 13.071C0.538408 13.4615 0.538408 14.0947 0.928933 14.4852L7.29289 20.8492ZM7 1V20.1421H9V1H7Z" fill="black"/>
</svg>
