<svg width="42" height="42" viewBox="0 0 42 42" fill="none" xmlns="http://www.w3.org/2000/svg">
<g clip-path="url(#clip0_207_5339)">
<path d="M21 42C32.598 42 42 32.598 42 21C42 9.40202 32.598 0 21 0C9.40202 0 0 9.40202 0 21C0 32.598 9.40202 42 21 42Z" fill="#BDF7EB"/>
<path d="M21 46C34.8071 46 46 34.8071 46 21C46 7.19288 34.8071 -4 21 -4C7.19288 -4 -4 7.19288 -4 21C-4 34.8071 7.19288 46 21 46Z" stroke="#3E3933" stroke-linecap="round" stroke-linejoin="round"/>
<path d="M16.0158 16.7229C16.2111 16.9182 16.5277 16.9182 16.7229 16.7229C16.9182 16.5277 16.9182 16.2111 16.7229 16.0158L16.0158 16.7229ZM10.9999 10.4999C10.7238 10.4999 10.4999 10.7238 10.4999 10.9999L10.4999 15.4999C10.4999 15.776 10.7238 15.9999 10.9999 15.9999C11.276 15.9999 11.4999 15.776 11.4999 15.4999L11.4999 11.4999L15.4999 11.4999C15.776 11.4999 15.9999 11.276 15.9999 10.9999C15.9999 10.7238 15.776 10.4999 15.4999 10.4999L10.9999 10.4999ZM16.7229 16.0158L11.3535 10.6463L10.6463 11.3535L16.0158 16.7229L16.7229 16.0158Z" fill="black"/>
<path d="M24.9756 24.2686C24.7804 24.0734 24.4638 24.0734 24.2685 24.2686C24.0733 24.4639 24.0733 24.7805 24.2685 24.9757L24.9756 24.2686ZM30.7586 31.2587C31.0348 31.2587 31.2586 31.0349 31.2586 30.7587L31.2586 26.2587C31.2586 25.9826 31.0348 25.7587 30.7586 25.7587C30.4825 25.7587 30.2586 25.9826 30.2586 26.2587L30.2586 30.2587L26.2586 30.2587C25.9825 30.2587 25.7586 30.4826 25.7586 30.7587C25.7586 31.0349 25.9825 31.2587 26.2586 31.2587L30.7586 31.2587ZM24.2685 24.9757L30.4051 31.1123L31.1122 30.4052L24.9756 24.2686L24.2685 24.9757Z" fill="black"/>
<path d="M17.49 24.9756C17.6853 24.7804 17.6853 24.4638 17.49 24.2685C17.2948 24.0733 16.9782 24.0733 16.7829 24.2685L17.49 24.9756ZM10.4999 30.7586C10.4999 31.0348 10.7238 31.2586 10.9999 31.2586L15.4999 31.2586C15.7761 31.2586 15.9999 31.0348 15.9999 30.7586C15.9999 30.4825 15.7761 30.2586 15.4999 30.2586L11.4999 30.2586L11.4999 26.2586C11.4999 25.9825 11.2761 25.7586 10.9999 25.7586C10.7238 25.7586 10.4999 25.9825 10.4999 26.2586L10.4999 30.7586ZM16.7829 24.2685L10.6464 30.4051L11.3535 31.1122L17.49 24.9756L16.7829 24.2685Z" fill="black"/>
<path d="M24.2685 16.7829C24.0733 16.9782 24.0733 17.2948 24.2685 17.49C24.4638 17.6853 24.7804 17.6853 24.9756 17.49L24.2685 16.7829ZM31.2586 10.9999C31.2586 10.7238 31.0348 10.4999 30.7586 10.4999L26.2586 10.4999C25.9825 10.4999 25.7586 10.7238 25.7586 10.9999C25.7586 11.2761 25.9825 11.4999 26.2586 11.4999L30.2586 11.4999L30.2586 15.4999C30.2586 15.7761 30.4825 15.9999 30.7586 15.9999C31.0348 15.9999 31.2586 15.7761 31.2586 15.4999L31.2586 10.9999ZM24.9756 17.49L31.1122 11.3535L30.4051 10.6464L24.2685 16.7829L24.9756 17.49Z" fill="black"/>
</g>
<defs>
<clipPath id="clip0_207_5339">
<rect width="42" height="42" rx="21" fill="white"/>
</clipPath>
</defs>
</svg>
