<svg width="54" height="54" viewBox="0 0 54 54" fill="none" xmlns="http://www.w3.org/2000/svg">
<path d="M27 54C41.9117 54 54 41.9117 54 27C54 12.0883 41.9117 0 27 0C12.0883 0 0 12.0883 0 27C0 41.9117 12.0883 54 27 54Z" fill="#BDF7EB"/>
<path d="M26.9883 42.978C10.4184 42.978 20.3662 26.0797 29.8347 23.4492" stroke="#212737" stroke-linecap="round" stroke-linejoin="round"/>
<path d="M18.5908 34.9565C18.5908 34.9565 26.6272 38.0412 31.0182 32.9178C34.5689 28.7753 36.3442 22.2658 35.7525 18.1233C32.2018 20.4904 25.7469 18.7979 20.3662 22.2658C14.4484 26.0798 16.8155 31.4058 16.8155 31.4058" stroke="#212737" stroke-linecap="round" stroke-linejoin="round"/>
<path d="M27.1139 42.978C35.9388 42.9159 43.0402 35.711 42.978 26.8875C42.9159 18.0626 35.711 10.9612 26.8875 11.0234C18.0641 11.0855 10.9612 18.2904 11.0234 27.1139C11.0515 31.03 12.488 34.6058 14.8463 37.368" stroke="#212737" stroke-linecap="round" stroke-linejoin="round"/>
</svg>
