<svg width="685" height="71" viewBox="0 0 685 71" fill="none" xmlns="http://www.w3.org/2000/svg">
<path d="M652.885 23.8277H680.385V34.1095H652.885V23.8277ZM653.864 47.3291H684.954V57.9373H640.726V0.815918H683.894V11.4242H653.864V47.3291Z" fill="#212737"/>
<path d="M585.265 47.1659L582.327 50.1851V0.815918H595.465V50.1851L592.364 47.1659H616.518L613.417 50.1851V0.815918H626.555V57.9373H551.155V0.815918H564.293V50.1851L561.274 47.1659H585.265Z" fill="#212737"/>
<path d="M525.775 36.6392C522.946 37.7816 520.226 38.652 517.614 39.2505C515.003 39.7945 512.501 40.0665 510.107 40.0665C502.436 40.0665 496.561 38.244 492.481 34.5991C488.401 30.8999 486.361 25.5957 486.361 18.6868V0.815918H499.417V17.2179C499.417 21.1348 500.478 24.0997 502.6 26.1125C504.721 28.071 507.741 29.0502 511.657 29.0502C514.16 29.0502 516.581 28.7782 518.92 28.2342C521.259 27.6358 523.435 26.7926 525.448 25.7045L525.775 36.6392ZM523.898 57.9373V0.815918H536.954V57.9373H523.898Z" fill="#212737"/>
<path d="M432.942 47.1659C436.097 48.0907 438.736 48.3627 440.857 47.9819C443.033 47.5467 444.965 46.0234 446.651 43.4122L449.425 39.2505L450.649 37.8632L469.581 0.815918H482.556L458.238 46.0234C456.062 50.1035 453.478 53.2316 450.486 55.4077C447.549 57.5837 444.312 58.8077 440.776 59.0797C437.24 59.4062 433.567 58.7805 429.759 57.2029L432.942 47.1659ZM450.405 48.8795L424.618 0.815918H438.736L457.667 39.1689L450.405 48.8795Z" fill="#212737"/>
<path d="M366.368 58.8349C365.389 58.8349 364.356 58.7533 363.268 58.5901C362.234 58.4269 361.092 58.2093 359.84 57.9373L360.656 46.7578C361.418 46.9754 362.207 47.0843 363.023 47.0843C365.253 47.0843 366.994 46.1866 368.245 44.3914C369.497 42.5417 370.394 39.9033 370.938 36.476C371.482 33.0487 371.836 28.887 371.999 23.9909L372.815 0.815918H416.717V57.9373H403.661V8.56811L406.68 11.5874H381.465L384.158 8.4049L383.668 23.5013C383.505 29.1046 383.124 34.0823 382.526 38.4344C381.927 42.7865 381.002 46.4858 379.751 49.5323C378.5 52.5788 376.786 54.8908 374.61 56.4685C372.434 58.0461 369.687 58.8349 366.368 58.8349Z" fill="#212737"/>
<path d="M310.356 57.9373V0.815918H329.614V57.9373H310.356Z" fill="#212737"/>
<path d="M238.41 57.9373L263.381 0.815918H282.312L307.282 57.9373H287.372L268.93 9.95535H276.437L257.995 57.9373H238.41ZM253.262 47.9819L258.158 34.1095H284.434L289.33 47.9819H253.262Z" fill="#212737"/>
<path d="M182.029 58.7533C181.105 58.7533 180.18 58.6717 179.255 58.5085C178.33 58.3453 177.324 58.1549 176.236 57.9373L176.97 48.7163C177.732 48.9339 178.548 49.0427 179.418 49.0427C181.703 49.0427 183.525 48.1179 184.885 46.2682C186.245 44.3642 187.225 41.5897 187.823 37.9448C188.421 34.2999 188.83 29.8118 189.047 24.4805L189.863 0.815918H231.888V57.9373H221.443V7.18087L223.891 9.79214H196.718L199.003 7.09927L198.431 24.0725C198.268 29.7302 197.887 34.708 197.289 39.0057C196.691 43.3034 195.766 46.9211 194.514 49.8587C193.318 52.742 191.713 54.9452 189.7 56.4685C187.687 57.9917 185.13 58.7533 182.029 58.7533Z" fill="#212737"/>
<path d="M138.216 24.5621H166.613V33.2935H138.216V24.5621ZM139.032 49.0427H171.264V57.9373H128.423V0.815918H170.122V9.71054H139.032V49.0427Z" fill="#212737"/>
<path d="M99.748 53.0412V9.79214H77.389L76.981 19.9108C76.8178 23.7189 76.573 27.3366 76.2466 30.7639C75.9746 34.1367 75.5122 37.2104 74.8594 39.9849C74.261 42.7593 73.4177 45.0714 72.3297 46.9211C71.2417 48.7707 69.9088 49.9947 68.3312 50.5931L56.9069 48.9611C58.9742 49.0699 60.6606 48.3627 61.9663 46.8394C63.3263 45.3162 64.3871 43.1946 65.1487 40.4745C65.9104 37.7544 66.4816 34.5719 66.8624 30.9271C67.2432 27.2278 67.5152 23.2293 67.6784 18.9316L68.3312 0.815918H110.193V53.0412H99.748ZM54.9485 70.096L55.0301 48.9611H118.435V70.096H108.643V57.9373H64.8223V70.096H54.9485Z" fill="#212737"/>
<path d="M30.7025 58.7534C26.3504 58.7534 22.2975 58.0462 18.5438 56.6318C14.8445 55.163 11.6076 53.1229 8.83316 50.5116C6.1131 47.846 3.99144 44.7179 2.46821 41.1274C0.944968 37.5369 0.18335 33.62 0.18335 29.3767C0.18335 25.1334 0.944968 21.2165 2.46821 17.626C3.99144 14.0355 6.14029 10.9347 8.91476 8.3234C11.6892 5.65774 14.9261 3.61769 18.6254 2.20325C22.3247 0.734418 26.3776 0 30.7841 0C35.4626 0 39.7331 0.816021 43.5956 2.44806C47.4581 4.0257 50.7222 6.39216 53.3878 9.54743L46.5333 15.994C44.466 13.7635 42.154 12.1043 39.5971 11.0163C37.0403 9.87384 34.2658 9.30263 31.2737 9.30263C28.2816 9.30263 25.5344 9.79224 23.0319 10.7715C20.5838 11.7507 18.435 13.1379 16.5853 14.9332C14.7901 16.7284 13.3757 18.8501 12.342 21.2981C11.3628 23.7462 10.8732 26.439 10.8732 29.3767C10.8732 32.3144 11.3628 35.0073 12.342 37.4553C13.3757 39.9034 14.7901 42.025 16.5853 43.8203C18.435 45.6155 20.5838 47.0028 23.0319 47.982C25.5344 48.9612 28.2816 49.4508 31.2737 49.4508C34.2658 49.4508 37.0403 48.9068 39.5971 47.8188C42.154 46.6763 44.466 44.9627 46.5333 42.6778L53.3878 49.206C50.7222 52.3069 47.4581 54.6733 43.5956 56.3054C39.7331 57.9374 35.4354 58.7534 30.7025 58.7534Z" fill="#212737"/>
</svg>
